<?xml version="1.0" encoding="utf-8"?>
<!-- Generator: Adobe Illustrator 19.1.0, SVG Export Plug-In . SVG Version: 6.00 Build 0)  -->
<svg version="1.1" id="Слой_1" xmlns="http://www.w3.org/2000/svg" xmlns:xlink="http://www.w3.org/1999/xlink" x="0px" y="0px"
	 viewBox="0 0 398.9 81.2" style="enable-background:new 0 0 398.9 81.2;" xml:space="preserve">
<style type="text/css">
	.st0{fill:url(#SVGID_1_);}
	.st1{fill:url(#SVGID_2_);}
	.st2{fill:url(#SVGID_3_);}
	.st3{fill:url(#SVGID_4_);}
	.st4{fill:url(#SVGID_5_);}
	.st5{fill:url(#SVGID_6_);}
	.st6{fill:url(#SVGID_7_);}
	.st7{fill:url(#SVGID_8_);}
	.st8{fill:url(#SVGID_9_);}
	.st9{fill:url(#SVGID_10_);}
	.st10{fill:url(#SVGID_11_);}
	.st11{fill:url(#SVGID_12_);}
	.st12{fill:url(#SVGID_13_);}
	.st13{fill:url(#SVGID_14_);}
	.st14{fill:url(#SVGID_15_);}
	.st15{fill:url(#SVGID_16_);}
	.st16{fill:url(#SVGID_17_);}
	.st17{fill:url(#SVGID_18_);}
	.st18{fill:url(#SVGID_19_);}
	.st19{fill:url(#SVGID_20_);}
	.st20{fill:url(#SVGID_21_);}
	.st21{fill:url(#SVGID_22_);}
	.st22{fill:url(#SVGID_23_);}
	.st23{fill:url(#SVGID_24_);}
	.st24{fill:url(#SVGID_25_);}
	.st25{fill:url(#SVGID_26_);}
	.st26{fill:url(#SVGID_27_);}
	.st27{fill:url(#SVGID_28_);}
	.st28{fill:url(#SVGID_29_);}
	.st29{fill:url(#SVGID_30_);}
	.st30{fill:url(#SVGID_31_);}
	.st31{fill:url(#SVGID_32_);}
	.st32{fill:url(#SVGID_33_);}
	.st33{fill:url(#SVGID_34_);}
	.st34{fill:url(#SVGID_35_);}
	.st35{fill:url(#SVGID_36_);}
	.st36{fill:#D100CC;}
	.st37{fill:url(#SVGID_37_);}
	.st38{fill:url(#SVGID_38_);}
	.st39{fill:url(#SVGID_39_);}
	.st40{fill:url(#SVGID_40_);}
	.st41{fill:url(#SVGID_41_);}
	.st42{fill:url(#SVGID_42_);}
	.st43{fill:url(#SVGID_43_);}
	.st44{fill:url(#SVGID_44_);}
	.st45{fill:url(#SVGID_45_);}
	.st46{fill:url(#SVGID_46_);}
	.st47{fill:url(#SVGID_47_);}
	.st48{fill:url(#SVGID_48_);}
	.st49{fill:url(#SVGID_49_);}
	.st50{fill:url(#SVGID_50_);}
	.st51{fill:url(#SVGID_51_);}
	.st52{fill:url(#SVGID_52_);}
	.st53{fill:url(#SVGID_53_);}
	.st54{fill:url(#SVGID_54_);}
	.st55{fill:url(#SVGID_55_);}
	.st56{fill:url(#SVGID_56_);}
	.st57{fill:url(#SVGID_57_);}
	.st58{fill:url(#SVGID_58_);}
	.st59{fill:url(#SVGID_59_);}
	.st60{fill:url(#SVGID_60_);}
	.st61{fill:url(#SVGID_61_);}
	.st62{fill:url(#SVGID_62_);}
	.st63{fill:url(#SVGID_63_);}
	.st64{fill:url(#SVGID_64_);}
	.st65{fill:url(#SVGID_65_);}
	.st66{fill:url(#SVGID_66_);}
	.st67{fill:url(#SVGID_67_);}
	.st68{fill:url(#SVGID_68_);}
	.st69{fill:url(#SVGID_69_);}
	.st70{fill:url(#SVGID_70_);}
	.st71{fill:url(#SVGID_71_);}
	.st72{fill:url(#SVGID_72_);}
	.st73{fill:url(#SVGID_73_);}
	.st74{fill:url(#SVGID_74_);}
	.st75{fill:url(#SVGID_75_);}
	.st76{fill:url(#SVGID_76_);}
	.st77{fill:url(#SVGID_77_);}
	.st78{fill:url(#SVGID_78_);}
	.st79{fill:url(#SVGID_79_);}
	.st80{fill:url(#SVGID_80_);}
	.st81{fill:url(#SVGID_81_);}
	.st82{fill:url(#SVGID_82_);}
	.st83{fill:url(#SVGID_83_);}
	.st84{fill:url(#SVGID_84_);}
	.st85{fill:url(#SVGID_85_);}
	.st86{fill:url(#SVGID_86_);}
	.st87{fill:url(#SVGID_87_);}
	.st88{fill:url(#SVGID_88_);}
	.st89{fill:url(#SVGID_89_);}
	.st90{fill:url(#SVGID_90_);}
	.st91{fill:url(#SVGID_91_);}
	.st92{fill:url(#SVGID_92_);}
	.st93{fill:url(#SVGID_93_);}
	.st94{fill:url(#SVGID_94_);}
	.st95{fill:url(#SVGID_95_);}
	.st96{fill:url(#SVGID_96_);}
	.st97{fill:url(#SVGID_97_);}
	.st98{fill:url(#SVGID_98_);}
	.st99{fill:url(#SVGID_99_);}
	.st100{fill:url(#SVGID_100_);}
	.st101{fill:url(#SVGID_101_);}
	.st102{fill:url(#SVGID_102_);}
	.st103{fill:url(#SVGID_103_);}
	.st104{fill:url(#SVGID_104_);}
	.st105{fill:url(#SVGID_105_);}
	.st106{fill:url(#SVGID_106_);}
	.st107{fill:url(#SVGID_107_);}
	.st108{fill:url(#SVGID_108_);}
	.st109{fill:url(#SVGID_109_);}
	.st110{fill:url(#SVGID_110_);}
	.st111{fill:url(#SVGID_111_);}
	.st112{fill:url(#SVGID_112_);}
	.st113{fill:url(#SVGID_113_);}
	.st114{fill:url(#SVGID_114_);}
	.st115{fill:url(#SVGID_115_);}
	.st116{fill:url(#SVGID_116_);}
	.st117{fill:url(#SVGID_117_);}
	.st118{fill:url(#SVGID_118_);}
	.st119{fill:url(#SVGID_119_);}
	.st120{fill:url(#SVGID_120_);}
	.st121{fill:url(#SVGID_121_);}
	.st122{fill:#351735;}
	.st123{fill:#740E99;}
</style>
<g>
	<g>
		<path d="M29.5,22c0.3,0.2,0.6,0.2,1,0.2c1.7,0,3.6-1.6,5.6-4.9c1.8-3,2.7-5.4,2.7-7.2c0-0.5,0-0.9,0-1.1c0-0.5-0.1-0.9-0.2-1.2
			c-0.1-0.3-0.4-0.5-0.8-0.5c-1.6,0-4.3,1.7-8.3,5.2c-4.4,3.8-8.1,8-11.2,12.7c-3.8,5.7-5.6,11-5.6,15.8c0,2.7,0.5,4.7,1.6,6.1
			c1.1,1.3,2.7,2,5,2c2,0,4.1-0.5,6.2-1.6c2.8-1.3,5.8-3.6,9.2-6.7c1.3-1.2,2.5-2.4,3.6-3.7c1.3-1.4,2.1-2.2,2.4-2.2
			c0.4,0,0.6,0.2,0.6,0.6c0,1.4-1.6,3.7-4.8,6.9s-6.7,6-10.6,8.4c-4.5,2.8-8.1,4.2-10.8,4.2c-2.5,0-4.7-0.8-6.6-2.5
			c-2.3-2-3.4-4.8-3.4-8.4c0-3.1,0.8-6.7,2.4-10.6c1.6-4,3.7-7.8,6.4-11.4c3.2-4.3,6.9-8.2,11.1-11.8c5.3-4.5,9.6-6.8,12.9-6.8
			c1.4,0,2.7,0.5,3.9,1.6c1.2,1,1.7,2.2,1.7,3.4c0,2.1-0.4,4.3-1.3,6.6c-1.3,3.3-3.4,6.8-6.5,10.5c-1.1,1.4-2.9,3.1-5.4,5.1
			c-3,2.5-5.1,3.7-6.3,3.7c-0.4,0-0.8-0.3-1.3-0.9c-0.4-0.6-0.7-1.2-0.9-1.9c1-2.1,2.2-4,3.7-5.8C26.8,24.4,28.1,23,29.5,22z"/>
		<path d="M43.4,35.4l-0.1,1.2c0,0.6,0.1,1.2,0.2,1.7s0.4,0.8,0.9,0.8c0.3,0,1.4-1.1,3.4-3.4c1.3-1.4,2.7-2.8,4.3-4.2
			c1.1-0.9,2.4-1.8,4.1-2.9c1.9-1.3,3.2-1.9,3.8-1.9c0.3,0,0.7,0.3,1.2,1c0.4,0.7,0.7,1.2,0.7,1.7c0,0.3-0.3,0.7-1,1.4
			C59.6,32,58.7,33.1,58,34c-1,1.3-1.6,2.3-2,3.1c-0.4,0.8-0.6,1.5-0.6,1.9c0,0.9,0.2,1.5,0.5,1.8c0.3,0.3,0.7,0.5,1.2,0.5
			c0.6,0,1.3-0.2,2.1-0.7c0.9-0.5,1.7-1.1,2.5-1.8c0.8-0.7,1.3-1,1.5-1c0.4,0,0.6,0.2,0.6,0.5c0,0.3-0.4,0.9-1.1,1.6
			c-0.7,0.7-1.9,1.7-3.4,3c-1.8,1.5-2.8,2.3-3,2.5c-1.3,0.9-2.4,1.3-3.4,1.3c-0.8,0-1.5-0.3-2-0.9c-0.5-0.6-0.7-1.3-0.7-2
			c0-0.9,0.2-1.9,0.6-2.8c0.4-1,1-2.2,1.9-3.6c0.6-0.9,1.2-1.8,1.8-2.8c0.3-0.5,0.5-0.8,0.5-1c-0.1-0.1-0.2-0.1-0.3-0.2
			c-0.1,0-0.2-0.1-0.3-0.1c-0.5,0-1.1,0.3-1.8,1c-1.4,1.2-3.6,3.4-6.6,6.8c-1.5,1.7-2.3,2.6-2.5,2.7c-1,1-1.8,1.5-2.4,1.5
			c-0.3,0-0.6-0.2-0.8-0.5c-0.2-0.3-0.3-0.9-0.3-1.7v-1.5c0-3.5,0.3-6,0.9-7.5c1.1-2.6,4-7.1,8.7-13.3c3-3.9,5.8-7.3,8.4-10
			c2.6-2.8,4.3-4.1,5.3-4.1c0.8,0.3,1.4,0.7,1.6,1.3v0.6c-0.2,0.9-1.6,3.1-4.2,6.7c-1,1.4-2.6,3.6-4.9,6.5c-1.3,1.6-3.3,4-6,7.1
			C46.6,32.2,44.5,34.4,43.4,35.4z"/>
		<path d="M75,26.9c-1.9,2.8-3.3,4.7-3.9,5.9c-1.3,2.2-1.9,4.1-1.9,5.7c0,2,0.9,2.9,2.7,2.9c0.3,0,0.8-0.1,1.4-0.4
			c1-0.4,2.2-1.1,3.7-2.2c0.6-0.4,1.1-0.8,1.7-1.3c0.2-0.2,0.5-0.2,0.7-0.2c0.3,0,0.5,0.2,0.5,0.6c0,0.3-0.6,1-1.9,2.2
			c-1.1,1-2,1.7-2.6,2.2c-2,1.5-3.6,2.6-4.8,3.2c-1.6,0.9-3,1.3-4.3,1.3c-0.8,0-1.5-0.3-2.1-1c-0.8-0.9-1.2-2.2-1.2-4
			c0-1.2,0.5-2.8,1.5-4.8c1.3-2.6,3.6-6,6.8-10.4l-5.4-0.1c-0.5,0-0.7-0.2-0.6-0.5c0.1-0.3,0.4-0.7,0.7-1.3c0.4-0.6,0.7-1.1,1.1-1.7
			c0.7-1,1.3-1.6,1.8-1.9c0.5-0.2,1.8-0.3,3.7-0.3h2.1c1.7-2.5,3.1-4.1,4.1-4.9c1-0.8,2.2-1.2,3.5-1.2c0.5,0,0.9,0,1.3,0.1
			c0.4,0.1,0.6,0.2,0.6,0.4c0,0.4-0.6,1.2-1.8,2.4c-1.2,1.2-2.4,2.4-3.5,3.5l1.7,0.1l1.5,0.1h0.9h0.2c0.5,0.1,0.7,0.3,0.7,0.6
			c0,0.2-0.1,0.5-0.3,0.7c-0.3,0.2-0.4,0.4-0.5,0.5l-2.3,2.5c-0.3,0.4-0.6,0.7-0.9,0.9c-0.3,0.2-0.6,0.3-1,0.3H75z"/>
		<path d="M95.6,27.6c0.8,0.2,1.3,0.6,1.5,1.2c0.2,0.6,0.3,1.2,0.3,1.9c0,0.6,0,1.1-0.1,1.3c-0.1,0.3-0.1,0.5-0.2,0.7
			c-0.2,1-0.4,1.8-0.8,2.5c-0.3,0.7-0.8,1.6-1.3,2.5l-0.2,0.5c0,0.2,0.1,0.4,0.4,0.6c0.2,0.2,0.6,0.3,0.9,0.3c0.5,0,0.9-0.2,1.3-0.5
			c0.4-0.3,0.8-0.5,1.1-0.5c0.4,0,0.6,0.1,0.6,0.4c0,0.5-0.6,1.2-1.9,2c-1.3,0.8-2.6,1.3-3.8,1.4h-1.1c-1.2,1.5-2.5,2.5-3.7,3.2
			s-2.5,1-3.8,1c-2,0-3.6-1-4.8-3c-1-1.6-1.4-3.4-1.4-5.2c0-2.7,1.6-5.6,4.9-8.7c3.3-3.1,6.3-4.7,9.2-4.7c0.8,0,1.5,0.2,2.2,0.5
			c0.6,0.4,1,0.7,1,1.1c0,0.2,0,0.4-0.1,0.7C95.7,27.2,95.7,27.4,95.6,27.6z M90.4,40.2c-0.2-0.4-0.4-0.7-0.5-1
			c-0.1-0.2-0.2-0.5-0.2-0.9c0-1.4,0.2-2.6,0.6-3.6c0.4-1,0.8-2,1.2-2.9c0.4-0.9,0.6-1.4,0.6-1.6c0-0.4-0.3-0.6-0.9-0.6
			c-0.6,0-1.5,0.4-2.7,1.3c-1,0.7-1.8,1.4-2.6,2.2c-1.2,1.2-2.1,2.3-2.6,3.3s-0.9,2.2-0.9,3.6c0,1.1,0.4,1.8,1.1,2.2
			c0.4,0.2,1,0.3,1.7,0.3c0.9,0,1.8-0.2,2.7-0.7C88.9,41.6,89.6,41,90.4,40.2z"/>
		<path d="M111.3,26.9c-1.9,2.8-3.3,4.7-3.9,5.9c-1.3,2.2-1.9,4.1-1.9,5.7c0,2,0.9,2.9,2.7,2.9c0.3,0,0.8-0.1,1.4-0.4
			c1-0.4,2.2-1.1,3.7-2.2c0.6-0.4,1.1-0.8,1.7-1.3c0.2-0.2,0.5-0.2,0.7-0.2c0.3,0,0.5,0.2,0.5,0.6c0,0.3-0.6,1-1.9,2.2
			c-1.1,1-2,1.7-2.6,2.2c-2,1.5-3.6,2.6-4.8,3.2c-1.6,0.9-3,1.3-4.3,1.3c-0.8,0-1.5-0.3-2.1-1c-0.8-0.9-1.2-2.2-1.2-4
			c0-1.2,0.5-2.8,1.5-4.8c1.3-2.6,3.6-6,6.8-10.4l-5.4-0.1c-0.5,0-0.7-0.2-0.6-0.5c0.1-0.3,0.4-0.7,0.7-1.3c0.4-0.6,0.7-1.1,1.1-1.7
			c0.7-1,1.3-1.6,1.8-1.9c0.5-0.2,1.8-0.3,3.7-0.3h2.1c1.7-2.5,3.1-4.1,4.1-4.9c1-0.8,2.2-1.2,3.5-1.2c0.5,0,0.9,0,1.3,0.1
			c0.4,0.1,0.6,0.2,0.6,0.4c0,0.4-0.6,1.2-1.8,2.4c-1.2,1.2-2.4,2.4-3.5,3.5l1.7,0.1l1.5,0.1h0.9h0.2c0.5,0.1,0.7,0.3,0.7,0.6
			c0,0.2-0.1,0.5-0.3,0.7c-0.3,0.2-0.4,0.4-0.5,0.5l-2.3,2.5c-0.3,0.4-0.6,0.7-0.9,0.9c-0.3,0.2-0.6,0.3-1,0.3H111.3z"/>
		<path d="M131.9,27.6c0.8,0.2,1.3,0.6,1.5,1.2c0.2,0.6,0.3,1.2,0.3,1.9c0,0.6,0,1.1-0.1,1.3c-0.1,0.3-0.1,0.5-0.2,0.7
			c-0.2,1-0.4,1.8-0.8,2.5c-0.3,0.7-0.8,1.6-1.3,2.5l-0.2,0.5c0,0.2,0.1,0.4,0.4,0.6c0.2,0.2,0.6,0.3,0.9,0.3c0.5,0,0.9-0.2,1.3-0.5
			c0.4-0.3,0.8-0.5,1.1-0.5c0.4,0,0.6,0.1,0.6,0.4c0,0.5-0.6,1.2-1.9,2c-1.3,0.8-2.6,1.3-3.8,1.4h-1.1c-1.2,1.5-2.5,2.5-3.7,3.2
			s-2.5,1-3.8,1c-2,0-3.6-1-4.8-3c-1-1.6-1.4-3.4-1.4-5.2c0-2.7,1.6-5.6,4.9-8.7c3.3-3.1,6.3-4.7,9.2-4.7c0.8,0,1.5,0.2,2.2,0.5
			c0.6,0.4,1,0.7,1,1.1c0,0.2,0,0.4-0.1,0.7C132,27.2,132,27.4,131.9,27.6z M126.7,40.2c-0.2-0.4-0.4-0.7-0.5-1
			c-0.1-0.2-0.2-0.5-0.2-0.9c0-1.4,0.2-2.6,0.6-3.6c0.4-1,0.8-2,1.2-2.9c0.4-0.9,0.6-1.4,0.6-1.6c0-0.4-0.3-0.6-0.9-0.6
			c-0.6,0-1.5,0.4-2.7,1.3c-1,0.7-1.8,1.4-2.6,2.2c-1.2,1.2-2.1,2.3-2.6,3.3s-0.9,2.2-0.9,3.6c0,1.1,0.4,1.8,1.1,2.2
			c0.4,0.2,1,0.3,1.7,0.3c0.9,0,1.8-0.2,2.7-0.7C125.2,41.6,125.9,41,126.7,40.2z"/>
		<path d="M148.4,39.7c0.5,0.9,1,1.7,1.7,2.2c0.7,0.6,1.5,0.9,2.4,0.9c0.5,0,1-0.2,1.7-0.5c0.9-0.5,2.1-1.4,3.6-2.8
			c0.2-0.2,0.6-0.5,1.2-0.9c0.6-0.4,1-0.6,1.2-0.6c0.3,0,0.4,0.3,0.4,0.8c0,1.2-1.5,2.9-4.4,5.1c-2.9,2.2-5.1,3.4-6.4,3.4
			c-1.4,0-2.8-0.7-3.9-2.1c-0.5-0.6-1.3-1.8-2.2-3.5c-0.3-0.5-0.4-0.8-0.5-0.9c-0.3-0.4-0.6-0.6-0.9-0.6c-0.3,0-0.7,0.2-1,0.5
			c-0.7,0.7-1.4,1.6-2.3,2.7c-1.1,1.4-2,2.2-2.5,2.2c-0.3,0-0.6-0.3-0.7-0.8c-0.2-0.6-0.2-1.5-0.2-2.9c0-4.9,1.1-9,3.3-12.3
			c0.8-1.2,2.6-3.6,5.5-7c3.2-3.8,6.4-7.1,9.5-10c2.8-2.6,4.8-3.9,5.9-3.9c1,0,1.4,0.3,1.4,1c0,0.6-1,2.1-3,4.6
			c-2.2,2.7-5,6-8.5,9.9c-2.9,3.1-4.9,5.3-6.2,6.7c-2,2.2-3.5,4-4.4,5.3c-0.2,0.5-0.3,0.9-0.3,1.3c0,1,0.2,1.4,0.5,1.4
			c0.5,0,1.7-1.1,3.6-3.3c1.7-2.1,3.9-4.1,6.4-6.2c3-2.4,5.4-3.8,7.2-4.1h0.7c0.6,0.2,1.1,0.8,1.6,1.9c0.4,1.1,0.7,2.1,0.7,3.1
			c0,1-1,2.3-2.9,4C154.6,35.7,151.9,37.6,148.4,39.7z M144.8,36.4c0.5,0.2,0.9,0.5,1.2,0.9c0.4,0.3,0.7,0.7,1.1,1.1
			c1-0.6,2.3-1.7,4.1-3.2c2.2-1.9,3.3-3.2,3.3-3.9c0-0.5-0.3-0.7-0.9-0.7c-0.9,0-2.5,0.8-4.6,2.4C147.3,34.2,145.9,35.3,144.8,36.4z
			"/>
		<path d="M161.9,35.7c0-1.4,0.3-2.4,1-3.2c0.7-0.8,1-1.4,1-1.9c0-0.2-0.1-0.3-0.2-0.5c-0.4-0.3-0.6-0.6-0.6-0.9
			c0-1.1,0.8-2.5,2.3-4.2c1.5-1.7,2.8-2.5,4-2.5c0.4,0,0.6,0.2,0.6,0.6l-0.2,0.9c0,0.7,0.4,1,1.3,1l2.9-0.3c1.1-0.2,1.9-0.4,2.3-0.5
			c0.4-0.1,0.8-0.1,1.1-0.1c0.5,0,0.8,0.2,1.1,0.6c0.4,0.6,0.6,1.4,0.6,2.1c0,0.8-0.5,1.8-1.6,2.8c-1.1,1-1.7,1.7-1.9,1.9
			c-1.3,1.6-2.3,3-2.8,4.1c-0.5,1.1-0.8,1.9-0.8,2.6c0,1.4,0.7,2.2,2.2,2.2c1.1,0,2.1-0.5,3-1.6c0.9-1.1,1.9-1.6,2.9-1.6
			c0.2,0,0.3,0.1,0.4,0.2c0.1,0.1,0.1,0.2,0.2,0.4c0,0.3-0.7,1.2-2.2,2.6c-1.1,1-2,1.8-2.7,2.4c-1.1,0.8-2.3,1.5-3.5,2
			c-1.2,0.5-2.4,0.7-3.5,0.7c-0.8,0-1.4-0.3-1.9-0.9c-0.6-0.7-1-1.6-1-2.8c0-1.4,0.6-3,1.8-4.7c0.3-0.3,1-1.3,2.2-2.7
			c0.5-0.6,1.1-1.3,1.9-2.2c0.9-1,1.4-1.7,1.4-2.1c0-0.4-0.3-0.6-0.8-0.7c-0.5-0.1-1-0.2-1.3-0.2c-2.1,0-3.4,0.2-4,0.5
			c-0.4,0.2-0.8,0.9-1.3,2.1c-0.6,1.5-1.4,2.7-2.4,3.4C162.7,35.4,162.3,35.6,161.9,35.7z"/>
		<path d="M201.4,26.9c0.3,0.5,0.6,1,0.9,1.5c0.2,0.5,0.3,1,0.3,1.5c0,0.4-0.2,0.9-0.6,1.5c-0.6,0.9-1.1,1.7-1.5,2.3
			c-0.5,0.8-1.1,1.7-1.6,2.5c-0.5,0.9-0.7,1.7-0.7,2.5c0,0.8,0.2,1.4,0.6,1.7c0.4,0.3,0.9,0.5,1.4,0.5c0.7,0,2-0.6,4.1-1.9
			c0.1-0.1,0.6-0.4,1.4-1c0.4-0.3,0.7-0.4,0.9-0.4l0.3,0.3c0,0.3-1.2,1.7-3.5,3.9c-1.5,1.5-2.8,2.6-3.8,3.3
			c-1.3,0.8-2.4,1.3-3.4,1.3c-0.8,0-1.5-0.3-2.1-0.8c-0.6-0.5-0.9-1.3-0.9-2.3c0-1.4,0.3-2.9,1-4.4c0.4-1,0.9-1.9,1.3-2.9
			c-3.7,3.8-6.5,6.4-8.6,7.8c-1.3,0.9-2.3,1.4-3,1.4c-1,0-1.7-0.8-2.4-2.3c-0.6-1.5-0.9-3.1-0.9-4.6c0-1.9,0.9-3.9,2.6-5.9
			c1.3-1.6,3.1-3.1,5.3-4.6c1.7-1.1,3.8-2.2,6-3.3c2.6-1.2,4.5-1.8,5.8-1.8c0.9,0,1.6,0.2,2.1,0.7c0.5,0.5,0.7,0.9,0.7,1.4
			c0,0.3-0.2,0.7-0.5,1C202.1,26.3,201.8,26.6,201.4,26.9z M183.7,39c0,0.3,0,0.7,0.1,1c0.1,0.3,0.3,0.5,0.6,0.6
			c0.2,0.1,0.4,0.1,0.8,0c1.8-0.4,4.2-2,7.4-4.7c3.1-2.7,4.7-4.7,4.7-5.8c0-0.2-0.1-0.4-0.3-0.5c-0.2-0.1-0.5-0.2-0.9-0.2
			c-2.5,0-5.3,1.1-8.1,3.2C185.2,34.7,183.7,36.9,183.7,39z"/>
		<path d="M218.5,28.2l-5.6,5l-1.4-1.8l6.4-5.8c0-0.2-0.1-0.5-0.1-0.9c0-0.6,0.1-1.1,0.4-1.5c0.1-0.2,0.4-0.5,0.9-0.9
			c0.5-0.5,1.1-1,1.7-1.6c0.4-0.3,0.8-0.5,1-0.5c0.7,0,1.4,1,2,3.1c0.7,2,1,3.8,1,5.3c0,1.7-0.6,3.7-1.7,5.8
			c-1.2,2.1-2.7,4.1-4.8,5.8c0.5,0.2,1,0.3,1.4,0.3s1-0.1,1.5-0.3c1.1-0.4,2.4-1.2,4.1-2.5c1.1-0.8,1.7-1.3,1.9-1.3l0.4,0.3
			c0,1.1-1.7,2.9-5.2,5.3c-3.5,2.4-5.8,3.6-7,3.6c-1.5,0-3.3-1-5.4-2.9c-2.2-2-3.3-3.9-3.3-5.6c0-0.6,0.2-1.2,0.6-1.8
			c0.4-0.6,1-0.9,1.7-0.9c1.6,0,2.9,1.1,4.1,3.3c0.5,1,1.1,1.5,1.7,1.5c1,0,1.9-0.5,2.7-1.5c1-1.2,1.5-2.7,1.5-4.5v-2.3
			C219.1,29.9,218.8,29,218.5,28.2z"/>
		<path d="M227.8,39.7c0-2.6,1.4-5.6,4.2-8.9c2.8-3.3,5.1-4.9,6.8-4.9c0.6,0,1,0.2,1.2,0.7c0.1,0.2,0.1,0.6,0.1,1.3
			c0,1.3-0.7,2.7-2,4.2c-1.3,1.5-3.2,2.8-5.6,3.9c-0.2,0.5-0.3,1-0.3,1.6v0.7c0,1.5,0.4,2.5,1.1,3.1c0.6,0.4,1.3,0.6,2.3,0.6
			c0.7,0,1.4-0.1,2.1-0.4c0.7-0.3,1.7-0.8,3.1-1.7c0.3-0.3,0.6-0.4,0.7-0.5c0.3-0.3,0.7-0.4,1-0.4c0.4,0,0.6,0.2,0.6,0.5
			c0,1.2-1.4,2.8-4.1,4.6c-2.7,1.8-4.9,2.7-6.4,2.7c-1.5,0-2.6-0.7-3.5-2C228.2,43.5,227.8,41.7,227.8,39.7z M242.4,23.9
			c-0.2,0.1-0.6,0.1-1.1,0.1c-0.5,0-0.9-0.2-1.2-0.5c-0.5-0.4-0.7-1.1-0.7-1.9c0-1.2,0.5-2.3,1.4-3.2s1.9-1.4,3.1-1.4
			c0.7,0,1.2,0.2,1.5,0.6c0.3,0.4,0.5,1,0.5,1.8c0,1-0.3,2-1,2.8C244,23,243.3,23.6,242.4,23.9z"/>
		<path d="M246.1,34.9c-0.2,0.4-0.3,0.9-0.5,1.5c-0.1,0.6-0.2,1.3-0.2,2.2c0,0.6,0.2,1.2,0.5,1.7c0.3,0.5,0.6,0.8,1,0.8
			c0.6,0,1.8-0.7,3.6-2c1.7-1.3,3-2.4,3.7-3.2c0-0.2,0-0.5,0-0.9c0-0.4,0-0.7,0.1-0.9c0.2-1.1,1.2-2.9,3-5.2
			c1.8-2.4,3.2-3.6,4.1-3.6c0.4,0,0.8,0.2,1.3,0.5c0.4,0.3,0.6,0.7,0.6,1.2c0,0.9-0.5,2.2-1.4,3.9c-0.9,1.7-2,3.2-3.2,4.4
			c0,0.6,0.2,1.1,0.5,1.5c0.3,0.4,0.8,0.6,1.4,0.6h0.3c0.5,0,1-0.1,1.5-0.4c0.5-0.3,0.8-0.4,1-0.4c0.4,0,0.6,0.2,0.6,0.7
			c0,0.2-0.2,0.5-0.5,0.8c-0.1,0.1-0.3,0.3-0.8,0.6c-1.2,0.9-2.2,1.4-3.1,1.4c-0.6,0-1.3-0.1-1.9-0.4c-0.6-0.3-1.1-0.8-1.6-1.5
			c-1.9,2.5-3.7,4.5-5.2,5.8c-1.3,1.1-2.4,1.7-3.3,1.7c-1.3,0-2.5-0.9-3.8-2.7c-1.4-1.9-2.1-4-2.1-6.2c0-1.7,0.6-3.4,1.7-5.1
			c0.4-0.6,1.2-1.6,2.3-3.1c1.2-1.4,2.2-2.4,3-2.9c0.6-0.3,1.2-0.5,1.9-0.5c0.6,0,1.1,0.1,1.5,0.3c0.4,0.2,0.6,0.6,0.6,1.1
			c0,0.3-0.2,1-0.7,1.9c-0.3,0.6-0.8,1.3-1.3,2.1c-0.8,1.1-1.4,2-2,2.6C247.9,33.6,247.1,34.3,246.1,34.9z"/>
		<path d="M280.9,27.6c0.8,0.2,1.3,0.6,1.5,1.2c0.2,0.6,0.3,1.2,0.3,1.9c0,0.6,0,1.1-0.1,1.3c-0.1,0.3-0.1,0.5-0.2,0.7
			c-0.2,1-0.4,1.8-0.8,2.5c-0.3,0.7-0.8,1.6-1.3,2.5l-0.2,0.5c0,0.2,0.1,0.4,0.4,0.6c0.2,0.2,0.6,0.3,0.9,0.3c0.5,0,0.9-0.2,1.3-0.5
			c0.4-0.3,0.8-0.5,1.1-0.5c0.4,0,0.6,0.1,0.6,0.4c0,0.5-0.6,1.2-1.9,2c-1.3,0.8-2.6,1.3-3.8,1.4h-1.1c-1.2,1.5-2.5,2.5-3.7,3.2
			s-2.5,1-3.8,1c-2,0-3.6-1-4.8-3c-1-1.6-1.4-3.4-1.4-5.2c0-2.7,1.6-5.6,4.9-8.7c3.3-3.1,6.3-4.7,9.2-4.7c0.8,0,1.5,0.2,2.2,0.5
			c0.6,0.4,1,0.7,1,1.1c0,0.2,0,0.4-0.1,0.7C281,27.2,280.9,27.4,280.9,27.6z M275.7,40.2c-0.2-0.4-0.4-0.7-0.5-1
			c-0.1-0.2-0.2-0.5-0.2-0.9c0-1.4,0.2-2.6,0.6-3.6c0.4-1,0.8-2,1.2-2.9c0.4-0.9,0.6-1.4,0.6-1.6c0-0.4-0.3-0.6-0.9-0.6
			c-0.6,0-1.5,0.4-2.7,1.3c-1,0.7-1.8,1.4-2.6,2.2c-1.2,1.2-2.1,2.3-2.6,3.3c-0.6,1-0.9,2.2-0.9,3.6c0,1.1,0.4,1.8,1.1,2.2
			c0.4,0.2,1,0.3,1.7,0.3c0.9,0,1.8-0.2,2.7-0.7C274.1,41.6,274.8,41,275.7,40.2z"/>
		<path d="M289.6,37.6c-0.1,1.4,0.1,2.6,0.7,3.3c0.6,0.8,1.5,1.2,2.6,1.2c0.6,0,1.2-0.1,1.8-0.3c1.1-0.4,2.4-1.1,3.9-2.1
			c0.7-0.5,1.5-1,2.2-1.6c0.8-0.6,1.2-0.9,1.4-0.9c0.2,0,0.3,0.3,0.3,0.9c0,0.4-0.6,1.2-1.8,2.5c-0.9,0.9-1.8,1.7-2.7,2.5
			c-2.2,1.9-3.8,3.1-4.8,3.5c-1,0.5-2.1,0.7-3.3,0.7c-1.5,0-2.7-0.5-3.7-1.6c-1.1-1.2-1.7-2.9-1.7-5c0-3.7,1.7-7.4,5-11.1
			c3.3-3.7,6.6-5.5,9.8-5.5c1.3,0,2.2,0.3,2.7,1c0.4,0.5,0.6,1.1,0.6,1.8c0,1.9-1.5,4.1-4.5,6.5C295.2,35.7,292.3,37.1,289.6,37.6z
			 M289.6,35.5c1.4-0.4,3.1-1.3,5-2.6c2.2-1.6,3.3-3.1,3.3-4.3c0-1-0.4-1.5-1.2-1.5c-1.3,0-2.7,0.9-4.1,2.7
			C291.2,31.6,290.2,33.5,289.6,35.5z"/>
		<path d="M306.7,44.4c0-1.2,0.6-2.5,1.7-4c1.1-1.5,2.1-2.3,3-2.3c0.3,0,0.6,0.1,0.9,0.3c0.4,0.4,0.6,1,0.6,1.8
			c0,1.2-0.6,2.6-1.7,3.9c-1.1,1.4-2.1,2-3,2c-0.2,0-0.4-0.1-0.6-0.2C307,45.7,306.7,45.1,306.7,44.4z"/>
		<path d="M316.8,38.4c0-2.9,1.8-6,5.4-9.4c3.6-3.4,7-5.1,10.2-5.1c0.6,0,1.2,0.1,1.6,0.4c0.4,0.3,0.7,0.7,0.7,1.3
			c0,0.8-0.7,2.3-2,4.5c-1.4,2.4-2.6,3.5-3.5,3.5c-0.3,0-0.5-0.3-0.5-0.8c0-0.5-0.4-0.9-1-1.2c-0.2-0.1-0.4-0.1-0.7,0
			c-1.1,0.3-2.5,1.2-4.1,2.9c-1.6,1.7-2.4,3.2-2.4,4.5c0,0.9,0.3,1.6,1,2.2c0.9,0.8,2.1,1.2,3.8,1.2c1.3,0,2.6-0.3,3.9-0.9
			c0.4-0.2,1.2-0.6,2.4-1.4c0.9-0.6,1.8-1.2,2.7-1.9c0.9-0.7,1.4-1,1.6-1c0.3,0,0.5,0.2,0.5,0.6c0,0.3-0.2,0.7-0.7,1.3
			c-0.8,0.9-2.2,2.2-4.2,4c-1.4,1.2-2.7,2.1-3.8,2.8c-1.5,0.8-2.8,1.3-4.1,1.3c-2.1,0-3.7-1.1-5-3.3
			C317.3,42.3,316.8,40.4,316.8,38.4z"/>
		<path d="M353.1,27.6c0.8,0.2,1.3,0.6,1.5,1.2c0.2,0.6,0.3,1.2,0.3,1.9c0,0.6,0,1.1-0.1,1.3c-0.1,0.3-0.1,0.5-0.2,0.7
			c-0.2,1-0.4,1.8-0.8,2.5c-0.3,0.7-0.8,1.6-1.3,2.5l-0.2,0.5c0,0.2,0.1,0.4,0.4,0.6c0.2,0.2,0.6,0.3,0.9,0.3c0.5,0,0.9-0.2,1.3-0.5
			c0.4-0.3,0.8-0.5,1.1-0.5c0.4,0,0.6,0.1,0.6,0.4c0,0.5-0.6,1.2-1.9,2c-1.3,0.8-2.6,1.3-3.8,1.4h-1.1c-1.2,1.5-2.5,2.5-3.7,3.2
			c-1.3,0.6-2.5,1-3.8,1c-2,0-3.6-1-4.8-3c-1-1.6-1.4-3.4-1.4-5.2c0-2.7,1.6-5.6,4.9-8.7c3.3-3.1,6.3-4.7,9.2-4.7
			c0.8,0,1.5,0.2,2.2,0.5c0.6,0.4,1,0.7,1,1.1c0,0.2,0,0.4-0.1,0.7C353.2,27.2,353.2,27.4,353.1,27.6z M347.9,40.2
			c-0.2-0.4-0.4-0.7-0.5-1c-0.1-0.2-0.2-0.5-0.2-0.9c0-1.4,0.2-2.6,0.6-3.6c0.4-1,0.8-2,1.2-2.9c0.4-0.9,0.6-1.4,0.6-1.6
			c0-0.4-0.3-0.6-0.9-0.6c-0.6,0-1.5,0.4-2.7,1.3c-1,0.7-1.8,1.4-2.6,2.2c-1.2,1.2-2.1,2.3-2.6,3.3c-0.6,1-0.9,2.2-0.9,3.6
			c0,1.1,0.4,1.8,1.1,2.2c0.4,0.2,1,0.3,1.7,0.3c0.9,0,1.8-0.2,2.7-0.7C346.3,41.6,347.1,41,347.9,40.2z"/>
		<path d="M361.2,39.2c1.2-1.2,2.5-2.5,4-3.9c1.8-1.7,4.1-3.6,6.7-5.7c1.3-1.1,2.6-1.9,3.8-2.6c1.2-0.7,2.1-1,2.9-1
			c0.6,0,1,0.2,1.1,0.6s0.2,0.9,0.2,1.6c0,0.3-0.1,0.7-0.3,1.3c-0.2,0.6-0.5,1.2-1,2c-1.4,2-2.3,3.3-2.6,3.7
			c-0.5,0.7-0.7,1.1-0.7,1.4l0.3,0.5c0.3,0,1.2-0.6,2.8-1.9c1.3-1.1,2.4-2.1,3.4-3.1c0.6-0.6,2-1.6,4-2.9c2-1.3,3.4-1.9,4-1.9
			c0.5,0,1,0.4,1.3,1.2c0.3,0.8,0.5,1.6,0.5,2.4c0,0.3-0.2,0.7-0.7,1.1c-1.8,1.6-2.8,2.6-3.1,3c-0.5,0.6-0.9,1.3-1.3,1.9
			c-0.6,1.1-0.9,2-0.9,2.6c0,1.1,0.6,1.7,1.7,1.7c1.3,0,2.3-0.6,2.8-1.7c0.5-1.1,1.6-1.7,3.2-1.7l0.4,0.2v0.5c-0.3,1.2-2,2.9-5,5.1
			c-3,2.2-5.1,3.4-6.2,3.4c-0.6,0-1.2-0.2-1.7-0.5c-0.7-0.4-1-1-1-1.9c0-1,0.1-1.8,0.3-2.5c0.2-0.7,0.6-1.6,1.1-2.6
			c0.4-0.8,0.9-1.7,1.5-2.7c0.3-0.4,0.4-0.7,0.5-1l0.1-0.5l-0.3-0.3c-0.4,0-1.3,0.5-2.7,1.6s-2.6,2-3.5,2.9c-1.3,1.4-2.6,2.7-3.9,4
			c-1.3,1.3-2.3,1.9-3.1,1.9c-1.1,0-1.7-0.6-1.7-1.9c0-0.3,0.1-0.7,0.3-1.4c0.2-0.7,0.7-1.6,1.4-2.7c0.7-1.1,1.4-2.3,2.1-3.4
			c0.3-0.5,0.4-0.8,0.4-0.9c0-0.6-0.4-0.9-1.3-0.9c-1.3,0-3.6,1.7-6.7,5c-0.7,0.8-1.8,2.2-3.3,4.3c-0.9,1.3-1.7,2-2.2,2
			c-0.6,0-1-0.3-1.4-0.9c-0.6-0.9-0.9-2.4-0.9-4.5c0-1.8,0.2-3.1,0.6-4.1c0.4-0.9,1.5-2.5,3.3-4.9c0.8-1.1,1.4-1.8,1.8-2.2
			c1-1,2-1.5,3.1-1.5c1.3,0,2,0.2,2,0.7c0,0.5-0.4,1.2-1.1,2.1c-0.2,0.3-0.9,1-2.1,2.3c-2.4,2.7-3.6,4.2-3.6,4.7
			C360.8,37.9,361,38.6,361.2,39.2z"/>
	</g>
	<g>
		<linearGradient id="SVGID_1_" gradientUnits="userSpaceOnUse" x1="199.5285" y1="22.4254" x2="199.3363" y2="52.3344">
			<stop  offset="0" style="stop-color:#D100CC"/>
			<stop  offset="0.5" style="stop-color:#92338A"/>
			<stop  offset="1" style="stop-color:#98008E"/>
		</linearGradient>
		<path class="st0" d="M29.5,22c0.3,0.2,0.6,0.2,1,0.2c1.7,0,3.6-1.6,5.6-4.9c1.8-3,2.7-5.4,2.7-7.2c0-0.5,0-0.9,0-1.1
			c0-0.5-0.1-0.9-0.2-1.2c-0.1-0.3-0.4-0.5-0.8-0.5c-1.6,0-4.3,1.7-8.3,5.2c-4.4,3.8-8.1,8-11.2,12.7c-3.8,5.7-5.6,11-5.6,15.8
			c0,2.7,0.5,4.7,1.6,6.1c1.1,1.3,2.7,2,5,2c2,0,4.1-0.5,6.2-1.6c2.8-1.3,5.8-3.6,9.2-6.7c1.3-1.2,2.5-2.4,3.6-3.7
			c1.3-1.4,2.1-2.2,2.4-2.2c0.4,0,0.6,0.2,0.6,0.6c0,1.4-1.6,3.7-4.8,6.9s-6.7,6-10.6,8.4c-4.5,2.8-8.1,4.2-10.8,4.2
			c-2.5,0-4.7-0.8-6.6-2.5c-2.3-2-3.4-4.8-3.4-8.4c0-3.1,0.8-6.7,2.4-10.6c1.6-4,3.7-7.8,6.4-11.4c3.2-4.3,6.9-8.2,11.1-11.8
			c5.3-4.5,9.6-6.8,12.9-6.8c1.4,0,2.7,0.5,3.9,1.6c1.2,1,1.7,2.2,1.7,3.4c0,2.1-0.4,4.3-1.3,6.6c-1.3,3.3-3.4,6.8-6.5,10.5
			c-1.1,1.4-2.9,3.1-5.4,5.1c-3,2.5-5.1,3.7-6.3,3.7c-0.4,0-0.8-0.3-1.3-0.9c-0.4-0.6-0.7-1.2-0.9-1.9c1-2.1,2.2-4,3.7-5.8
			C26.8,24.4,28.1,23,29.5,22z"/>
		<linearGradient id="SVGID_2_" gradientUnits="userSpaceOnUse" x1="199.5285" y1="22.4254" x2="199.3363" y2="52.3344">
			<stop  offset="0" style="stop-color:#D100CC"/>
			<stop  offset="0.5" style="stop-color:#92338A"/>
			<stop  offset="1" style="stop-color:#98008E"/>
		</linearGradient>
		<path class="st1" d="M43.4,35.4l-0.1,1.2c0,0.6,0.1,1.2,0.2,1.7s0.4,0.8,0.9,0.8c0.3,0,1.4-1.1,3.4-3.4c1.3-1.4,2.7-2.8,4.3-4.2
			c1.1-0.9,2.4-1.8,4.1-2.9c1.9-1.3,3.2-1.9,3.8-1.9c0.3,0,0.7,0.3,1.2,1c0.4,0.7,0.7,1.2,0.7,1.7c0,0.3-0.3,0.7-1,1.4
			C59.6,32,58.7,33.1,58,34c-1,1.3-1.6,2.3-2,3.1c-0.4,0.8-0.6,1.5-0.6,1.9c0,0.9,0.2,1.5,0.5,1.8c0.3,0.3,0.7,0.5,1.2,0.5
			c0.6,0,1.3-0.2,2.1-0.7c0.9-0.5,1.7-1.1,2.5-1.8c0.8-0.7,1.3-1,1.5-1c0.4,0,0.6,0.2,0.6,0.5c0,0.3-0.4,0.9-1.1,1.6
			c-0.7,0.7-1.9,1.7-3.4,3c-1.8,1.5-2.8,2.3-3,2.5c-1.3,0.9-2.4,1.3-3.4,1.3c-0.8,0-1.5-0.3-2-0.9c-0.5-0.6-0.7-1.3-0.7-2
			c0-0.9,0.2-1.9,0.6-2.8c0.4-1,1-2.2,1.9-3.6c0.6-0.9,1.2-1.8,1.8-2.8c0.3-0.5,0.5-0.8,0.5-1c-0.1-0.1-0.2-0.1-0.3-0.2
			c-0.1,0-0.2-0.1-0.3-0.1c-0.5,0-1.1,0.3-1.8,1c-1.4,1.2-3.6,3.4-6.6,6.8c-1.5,1.7-2.3,2.6-2.5,2.7c-1,1-1.8,1.5-2.4,1.5
			c-0.3,0-0.6-0.2-0.8-0.5c-0.2-0.3-0.3-0.9-0.3-1.7v-1.5c0-3.5,0.3-6,0.9-7.5c1.1-2.6,4-7.1,8.7-13.3c3-3.9,5.8-7.3,8.4-10
			c2.6-2.8,4.3-4.1,5.3-4.1c0.8,0.3,1.4,0.7,1.6,1.3v0.6c-0.2,0.9-1.6,3.1-4.2,6.7c-1,1.4-2.6,3.6-4.9,6.5c-1.3,1.6-3.3,4-6,7.1
			C46.6,32.2,44.5,34.4,43.4,35.4z"/>
		<linearGradient id="SVGID_3_" gradientUnits="userSpaceOnUse" x1="199.5285" y1="22.4254" x2="199.3363" y2="52.3344">
			<stop  offset="0" style="stop-color:#D100CC"/>
			<stop  offset="0.5" style="stop-color:#92338A"/>
			<stop  offset="1" style="stop-color:#98008E"/>
		</linearGradient>
		<path class="st2" d="M75,26.9c-1.9,2.8-3.3,4.7-3.9,5.9c-1.3,2.2-1.9,4.1-1.9,5.7c0,2,0.9,2.9,2.7,2.9c0.3,0,0.8-0.1,1.4-0.4
			c1-0.4,2.2-1.1,3.7-2.2c0.6-0.4,1.1-0.8,1.7-1.3c0.2-0.2,0.5-0.2,0.7-0.2c0.3,0,0.5,0.2,0.5,0.6c0,0.3-0.6,1-1.9,2.2
			c-1.1,1-2,1.7-2.6,2.2c-2,1.5-3.6,2.6-4.8,3.2c-1.6,0.9-3,1.3-4.3,1.3c-0.8,0-1.5-0.3-2.1-1c-0.8-0.9-1.2-2.2-1.2-4
			c0-1.2,0.5-2.8,1.5-4.8c1.3-2.6,3.6-6,6.8-10.4l-5.4-0.1c-0.5,0-0.7-0.2-0.6-0.5c0.1-0.3,0.4-0.7,0.7-1.3c0.4-0.6,0.7-1.1,1.1-1.7
			c0.7-1,1.3-1.6,1.8-1.9c0.5-0.2,1.8-0.3,3.7-0.3h2.1c1.7-2.5,3.1-4.1,4.1-4.9c1-0.8,2.2-1.2,3.5-1.2c0.5,0,0.9,0,1.3,0.1
			c0.4,0.1,0.6,0.2,0.6,0.4c0,0.4-0.6,1.2-1.8,2.4c-1.2,1.2-2.4,2.4-3.5,3.5l1.7,0.1l1.5,0.1h0.9h0.2c0.5,0.1,0.7,0.3,0.7,0.6
			c0,0.2-0.1,0.5-0.3,0.7c-0.3,0.2-0.4,0.4-0.5,0.5l-2.3,2.5c-0.3,0.4-0.6,0.7-0.9,0.9c-0.3,0.2-0.6,0.3-1,0.3H75z"/>
		<linearGradient id="SVGID_4_" gradientUnits="userSpaceOnUse" x1="199.5285" y1="22.4254" x2="199.3363" y2="52.3344">
			<stop  offset="0" style="stop-color:#D100CC"/>
			<stop  offset="0.5" style="stop-color:#92338A"/>
			<stop  offset="1" style="stop-color:#98008E"/>
		</linearGradient>
		<path class="st3" d="M95.6,27.6c0.8,0.2,1.3,0.6,1.5,1.2c0.2,0.6,0.3,1.2,0.3,1.9c0,0.6,0,1.1-0.1,1.3c-0.1,0.3-0.1,0.5-0.2,0.7
			c-0.2,1-0.4,1.8-0.8,2.5c-0.3,0.7-0.8,1.6-1.3,2.5l-0.2,0.5c0,0.2,0.1,0.4,0.4,0.6c0.2,0.2,0.6,0.3,0.9,0.3c0.5,0,0.9-0.2,1.3-0.5
			c0.4-0.3,0.8-0.5,1.1-0.5c0.4,0,0.6,0.1,0.6,0.4c0,0.5-0.6,1.2-1.9,2c-1.3,0.8-2.6,1.3-3.8,1.4h-1.1c-1.2,1.5-2.5,2.5-3.7,3.2
			s-2.5,1-3.8,1c-2,0-3.6-1-4.8-3c-1-1.6-1.4-3.4-1.4-5.2c0-2.7,1.6-5.6,4.9-8.7c3.3-3.1,6.3-4.7,9.2-4.7c0.8,0,1.5,0.2,2.2,0.5
			c0.6,0.4,1,0.7,1,1.1c0,0.2,0,0.4-0.1,0.7C95.7,27.2,95.7,27.4,95.6,27.6z M90.4,40.2c-0.2-0.4-0.4-0.7-0.5-1
			c-0.1-0.2-0.2-0.5-0.2-0.9c0-1.4,0.2-2.6,0.6-3.6c0.4-1,0.8-2,1.2-2.9c0.4-0.9,0.6-1.4,0.6-1.6c0-0.4-0.3-0.6-0.9-0.6
			c-0.6,0-1.5,0.4-2.7,1.3c-1,0.7-1.8,1.4-2.6,2.2c-1.2,1.2-2.1,2.3-2.6,3.3s-0.9,2.2-0.9,3.6c0,1.1,0.4,1.8,1.1,2.2
			c0.4,0.2,1,0.3,1.7,0.3c0.9,0,1.8-0.2,2.7-0.7C88.9,41.6,89.6,41,90.4,40.2z"/>
		<linearGradient id="SVGID_5_" gradientUnits="userSpaceOnUse" x1="199.5285" y1="22.4254" x2="199.3363" y2="52.3344">
			<stop  offset="0" style="stop-color:#D100CC"/>
			<stop  offset="0.5" style="stop-color:#92338A"/>
			<stop  offset="1" style="stop-color:#98008E"/>
		</linearGradient>
		<path class="st4" d="M111.3,26.9c-1.9,2.8-3.3,4.7-3.9,5.9c-1.3,2.2-1.9,4.1-1.9,5.7c0,2,0.9,2.9,2.7,2.9c0.3,0,0.8-0.1,1.4-0.4
			c1-0.4,2.2-1.1,3.7-2.2c0.6-0.4,1.1-0.8,1.7-1.3c0.2-0.2,0.5-0.2,0.7-0.2c0.3,0,0.5,0.2,0.5,0.6c0,0.3-0.6,1-1.9,2.2
			c-1.1,1-2,1.7-2.6,2.2c-2,1.5-3.6,2.6-4.8,3.2c-1.6,0.9-3,1.3-4.3,1.3c-0.8,0-1.5-0.3-2.1-1c-0.8-0.9-1.2-2.2-1.2-4
			c0-1.2,0.5-2.8,1.5-4.8c1.3-2.6,3.6-6,6.8-10.4l-5.4-0.1c-0.5,0-0.7-0.2-0.6-0.5c0.1-0.3,0.4-0.7,0.7-1.3c0.4-0.6,0.7-1.1,1.1-1.7
			c0.7-1,1.3-1.6,1.8-1.9c0.5-0.2,1.8-0.3,3.7-0.3h2.1c1.7-2.5,3.1-4.1,4.1-4.9c1-0.8,2.2-1.2,3.5-1.2c0.5,0,0.9,0,1.3,0.1
			c0.4,0.1,0.6,0.2,0.6,0.4c0,0.4-0.6,1.2-1.8,2.4c-1.2,1.2-2.4,2.4-3.5,3.5l1.7,0.1l1.5,0.1h0.9h0.2c0.5,0.1,0.7,0.3,0.7,0.6
			c0,0.2-0.1,0.5-0.3,0.7c-0.3,0.2-0.4,0.4-0.5,0.5l-2.3,2.5c-0.3,0.4-0.6,0.7-0.9,0.9c-0.3,0.2-0.6,0.3-1,0.3H111.3z"/>
		<linearGradient id="SVGID_6_" gradientUnits="userSpaceOnUse" x1="199.5285" y1="22.4254" x2="199.3363" y2="52.3344">
			<stop  offset="0" style="stop-color:#D100CC"/>
			<stop  offset="0.5" style="stop-color:#92338A"/>
			<stop  offset="1" style="stop-color:#98008E"/>
		</linearGradient>
		<path class="st5" d="M131.9,27.6c0.8,0.2,1.3,0.6,1.5,1.2c0.2,0.6,0.3,1.2,0.3,1.9c0,0.6,0,1.1-0.1,1.3c-0.1,0.3-0.1,0.5-0.2,0.7
			c-0.2,1-0.4,1.8-0.8,2.5c-0.3,0.7-0.8,1.6-1.3,2.5l-0.2,0.5c0,0.2,0.1,0.4,0.4,0.6c0.2,0.2,0.6,0.3,0.9,0.3c0.5,0,0.9-0.2,1.3-0.5
			c0.4-0.3,0.8-0.5,1.1-0.5c0.4,0,0.6,0.1,0.6,0.4c0,0.5-0.6,1.2-1.9,2c-1.3,0.8-2.6,1.3-3.8,1.4h-1.1c-1.2,1.5-2.5,2.5-3.7,3.2
			s-2.5,1-3.8,1c-2,0-3.6-1-4.8-3c-1-1.6-1.4-3.4-1.4-5.2c0-2.7,1.6-5.6,4.9-8.7c3.3-3.1,6.3-4.7,9.2-4.7c0.8,0,1.5,0.2,2.2,0.5
			c0.6,0.4,1,0.7,1,1.1c0,0.2,0,0.4-0.1,0.7C132,27.2,132,27.4,131.9,27.6z M126.7,40.2c-0.2-0.4-0.4-0.7-0.5-1
			c-0.1-0.2-0.2-0.5-0.2-0.9c0-1.4,0.2-2.6,0.6-3.6c0.4-1,0.8-2,1.2-2.9c0.4-0.9,0.6-1.4,0.6-1.6c0-0.4-0.3-0.6-0.9-0.6
			c-0.6,0-1.5,0.4-2.7,1.3c-1,0.7-1.8,1.4-2.6,2.2c-1.2,1.2-2.1,2.3-2.6,3.3s-0.9,2.2-0.9,3.6c0,1.1,0.4,1.8,1.1,2.2
			c0.4,0.2,1,0.3,1.7,0.3c0.9,0,1.8-0.2,2.7-0.7C125.2,41.6,125.9,41,126.7,40.2z"/>
		<linearGradient id="SVGID_7_" gradientUnits="userSpaceOnUse" x1="199.5285" y1="22.4254" x2="199.3363" y2="52.3344">
			<stop  offset="0" style="stop-color:#D100CC"/>
			<stop  offset="0.5" style="stop-color:#92338A"/>
			<stop  offset="1" style="stop-color:#98008E"/>
		</linearGradient>
		<path class="st6" d="M148.4,39.7c0.5,0.9,1,1.7,1.7,2.2c0.7,0.6,1.5,0.9,2.4,0.9c0.5,0,1-0.2,1.7-0.5c0.9-0.5,2.1-1.4,3.6-2.8
			c0.2-0.2,0.6-0.5,1.2-0.9c0.6-0.4,1-0.6,1.2-0.6c0.3,0,0.4,0.3,0.4,0.8c0,1.2-1.5,2.9-4.4,5.1c-2.9,2.2-5.1,3.4-6.4,3.4
			c-1.4,0-2.8-0.7-3.9-2.1c-0.5-0.6-1.3-1.8-2.2-3.5c-0.3-0.5-0.4-0.8-0.5-0.9c-0.3-0.4-0.6-0.6-0.9-0.6c-0.3,0-0.7,0.2-1,0.5
			c-0.7,0.7-1.4,1.6-2.3,2.7c-1.1,1.4-2,2.2-2.5,2.2c-0.3,0-0.6-0.3-0.7-0.8c-0.2-0.6-0.2-1.5-0.2-2.9c0-4.9,1.1-9,3.3-12.3
			c0.8-1.2,2.6-3.6,5.5-7c3.2-3.8,6.4-7.1,9.5-10c2.8-2.6,4.8-3.9,5.9-3.9c1,0,1.4,0.3,1.4,1c0,0.6-1,2.1-3,4.6
			c-2.2,2.7-5,6-8.5,9.9c-2.9,3.1-4.9,5.3-6.2,6.7c-2,2.2-3.5,4-4.4,5.3c-0.2,0.5-0.3,0.9-0.3,1.3c0,1,0.2,1.4,0.5,1.4
			c0.5,0,1.7-1.1,3.6-3.3c1.7-2.1,3.9-4.1,6.4-6.2c3-2.4,5.4-3.8,7.2-4.1h0.7c0.6,0.2,1.1,0.8,1.6,1.9c0.4,1.1,0.7,2.1,0.7,3.1
			c0,1-1,2.3-2.9,4C154.6,35.7,151.9,37.6,148.4,39.7z M144.8,36.4c0.5,0.2,0.9,0.5,1.2,0.9c0.4,0.3,0.7,0.7,1.1,1.1
			c1-0.6,2.3-1.7,4.1-3.2c2.2-1.9,3.3-3.2,3.3-3.9c0-0.5-0.3-0.7-0.9-0.7c-0.9,0-2.5,0.8-4.6,2.4C147.3,34.2,145.9,35.3,144.8,36.4z
			"/>
		<linearGradient id="SVGID_8_" gradientUnits="userSpaceOnUse" x1="199.5285" y1="22.4254" x2="199.3363" y2="52.3344">
			<stop  offset="0" style="stop-color:#D100CC"/>
			<stop  offset="0.5" style="stop-color:#92338A"/>
			<stop  offset="1" style="stop-color:#98008E"/>
		</linearGradient>
		<path class="st7" d="M161.9,35.7c0-1.4,0.3-2.4,1-3.2c0.7-0.8,1-1.4,1-1.9c0-0.2-0.1-0.3-0.2-0.5c-0.4-0.3-0.6-0.6-0.6-0.9
			c0-1.1,0.8-2.5,2.3-4.2c1.5-1.7,2.8-2.5,4-2.5c0.4,0,0.6,0.2,0.6,0.6l-0.2,0.9c0,0.7,0.4,1,1.3,1l2.9-0.3c1.1-0.2,1.9-0.4,2.3-0.5
			c0.4-0.1,0.8-0.1,1.1-0.1c0.5,0,0.8,0.2,1.1,0.6c0.4,0.6,0.6,1.4,0.6,2.1c0,0.8-0.5,1.8-1.6,2.8c-1.1,1-1.7,1.7-1.9,1.9
			c-1.3,1.6-2.3,3-2.8,4.1c-0.5,1.1-0.8,1.9-0.8,2.6c0,1.4,0.7,2.2,2.2,2.2c1.1,0,2.1-0.5,3-1.6c0.9-1.1,1.9-1.6,2.9-1.6
			c0.2,0,0.3,0.1,0.4,0.2c0.1,0.1,0.1,0.2,0.2,0.4c0,0.3-0.7,1.2-2.2,2.6c-1.1,1-2,1.8-2.7,2.4c-1.1,0.8-2.3,1.5-3.5,2
			c-1.2,0.5-2.4,0.7-3.5,0.7c-0.8,0-1.4-0.3-1.9-0.9c-0.6-0.7-1-1.6-1-2.8c0-1.4,0.6-3,1.8-4.7c0.3-0.3,1-1.3,2.2-2.7
			c0.5-0.6,1.1-1.3,1.9-2.2c0.9-1,1.4-1.7,1.4-2.1c0-0.4-0.3-0.6-0.8-0.7c-0.5-0.1-1-0.2-1.3-0.2c-2.1,0-3.4,0.2-4,0.5
			c-0.4,0.2-0.8,0.9-1.3,2.1c-0.6,1.5-1.4,2.7-2.4,3.4C162.7,35.4,162.3,35.6,161.9,35.7z"/>
		<linearGradient id="SVGID_9_" gradientUnits="userSpaceOnUse" x1="199.5285" y1="22.4254" x2="199.3363" y2="52.3344">
			<stop  offset="0" style="stop-color:#D100CC"/>
			<stop  offset="0.5" style="stop-color:#92338A"/>
			<stop  offset="1" style="stop-color:#98008E"/>
		</linearGradient>
		<path class="st8" d="M201.4,26.9c0.3,0.5,0.6,1,0.9,1.5c0.2,0.5,0.3,1,0.3,1.5c0,0.4-0.2,0.9-0.6,1.5c-0.6,0.9-1.1,1.7-1.5,2.3
			c-0.5,0.8-1.1,1.7-1.6,2.5c-0.5,0.9-0.7,1.7-0.7,2.5c0,0.8,0.2,1.4,0.6,1.7c0.4,0.3,0.9,0.5,1.4,0.5c0.7,0,2-0.6,4.1-1.9
			c0.1-0.1,0.6-0.4,1.4-1c0.4-0.3,0.7-0.4,0.9-0.4l0.3,0.3c0,0.3-1.2,1.7-3.5,3.9c-1.5,1.5-2.8,2.6-3.8,3.3
			c-1.3,0.8-2.4,1.3-3.4,1.3c-0.8,0-1.5-0.3-2.1-0.8c-0.6-0.5-0.9-1.3-0.9-2.3c0-1.4,0.3-2.9,1-4.4c0.4-1,0.9-1.9,1.3-2.9
			c-3.7,3.8-6.5,6.4-8.6,7.8c-1.3,0.9-2.3,1.4-3,1.4c-1,0-1.7-0.8-2.4-2.3c-0.6-1.5-0.9-3.1-0.9-4.6c0-1.9,0.9-3.9,2.6-5.9
			c1.3-1.6,3.1-3.1,5.3-4.6c1.7-1.1,3.8-2.2,6-3.3c2.6-1.2,4.5-1.8,5.8-1.8c0.9,0,1.6,0.2,2.1,0.7c0.5,0.5,0.7,0.9,0.7,1.4
			c0,0.3-0.2,0.7-0.5,1C202.1,26.3,201.8,26.6,201.4,26.9z M183.7,39c0,0.3,0,0.7,0.1,1c0.1,0.3,0.3,0.5,0.6,0.6
			c0.2,0.1,0.4,0.1,0.8,0c1.8-0.4,4.2-2,7.4-4.7c3.1-2.7,4.7-4.7,4.7-5.8c0-0.2-0.1-0.4-0.3-0.5c-0.2-0.1-0.5-0.2-0.9-0.2
			c-2.5,0-5.3,1.1-8.1,3.2C185.2,34.7,183.7,36.9,183.7,39z"/>
		<linearGradient id="SVGID_10_" gradientUnits="userSpaceOnUse" x1="199.5285" y1="22.4254" x2="199.3363" y2="52.3344">
			<stop  offset="0" style="stop-color:#D100CC"/>
			<stop  offset="0.5" style="stop-color:#92338A"/>
			<stop  offset="1" style="stop-color:#98008E"/>
		</linearGradient>
		<path class="st9" d="M218.5,28.2l-5.6,5l-1.4-1.8l6.4-5.8c0-0.2-0.1-0.5-0.1-0.9c0-0.6,0.1-1.1,0.4-1.5c0.1-0.2,0.4-0.5,0.9-0.9
			c0.5-0.5,1.1-1,1.7-1.6c0.4-0.3,0.8-0.5,1-0.5c0.7,0,1.4,1,2,3.1c0.7,2,1,3.8,1,5.3c0,1.7-0.6,3.7-1.7,5.8
			c-1.2,2.1-2.7,4.1-4.8,5.8c0.5,0.2,1,0.3,1.4,0.3s1-0.1,1.5-0.3c1.1-0.4,2.4-1.2,4.1-2.5c1.1-0.8,1.7-1.3,1.9-1.3l0.4,0.3
			c0,1.1-1.7,2.9-5.2,5.3c-3.5,2.4-5.8,3.6-7,3.6c-1.5,0-3.3-1-5.4-2.9c-2.2-2-3.3-3.9-3.3-5.6c0-0.6,0.2-1.2,0.6-1.8
			c0.4-0.6,1-0.9,1.7-0.9c1.6,0,2.9,1.1,4.1,3.3c0.5,1,1.1,1.5,1.7,1.5c1,0,1.9-0.5,2.7-1.5c1-1.2,1.5-2.7,1.5-4.5v-2.3
			C219.1,29.9,218.8,29,218.5,28.2z"/>
		<linearGradient id="SVGID_11_" gradientUnits="userSpaceOnUse" x1="199.5285" y1="22.4254" x2="199.3363" y2="52.3344">
			<stop  offset="0" style="stop-color:#D100CC"/>
			<stop  offset="0.5" style="stop-color:#92338A"/>
			<stop  offset="1" style="stop-color:#98008E"/>
		</linearGradient>
		<path class="st10" d="M227.8,39.7c0-2.6,1.4-5.6,4.2-8.9c2.8-3.3,5.1-4.9,6.8-4.9c0.6,0,1,0.2,1.2,0.7c0.1,0.2,0.1,0.6,0.1,1.3
			c0,1.3-0.7,2.7-2,4.2c-1.3,1.5-3.2,2.8-5.6,3.9c-0.2,0.5-0.3,1-0.3,1.6v0.7c0,1.5,0.4,2.5,1.1,3.1c0.6,0.4,1.3,0.6,2.3,0.6
			c0.7,0,1.4-0.1,2.1-0.4c0.7-0.3,1.7-0.8,3.1-1.7c0.3-0.3,0.6-0.4,0.7-0.5c0.3-0.3,0.7-0.4,1-0.4c0.4,0,0.6,0.2,0.6,0.5
			c0,1.2-1.4,2.8-4.1,4.6c-2.7,1.8-4.9,2.7-6.4,2.7c-1.5,0-2.6-0.7-3.5-2C228.2,43.5,227.8,41.7,227.8,39.7z M242.4,23.9
			c-0.2,0.1-0.6,0.1-1.1,0.1c-0.5,0-0.9-0.2-1.2-0.5c-0.5-0.4-0.7-1.1-0.7-1.9c0-1.2,0.5-2.3,1.4-3.2s1.9-1.4,3.1-1.4
			c0.7,0,1.2,0.2,1.5,0.6c0.3,0.4,0.5,1,0.5,1.8c0,1-0.3,2-1,2.8C244,23,243.3,23.6,242.4,23.9z"/>
		<linearGradient id="SVGID_12_" gradientUnits="userSpaceOnUse" x1="199.5285" y1="22.4254" x2="199.3363" y2="52.3344">
			<stop  offset="0" style="stop-color:#D100CC"/>
			<stop  offset="0.5" style="stop-color:#92338A"/>
			<stop  offset="1" style="stop-color:#98008E"/>
		</linearGradient>
		<path class="st11" d="M246.1,34.9c-0.2,0.4-0.3,0.9-0.5,1.5c-0.1,0.6-0.2,1.3-0.2,2.2c0,0.6,0.2,1.2,0.5,1.7
			c0.3,0.5,0.6,0.8,1,0.8c0.6,0,1.8-0.7,3.6-2c1.7-1.3,3-2.4,3.7-3.2c0-0.2,0-0.5,0-0.9c0-0.4,0-0.7,0.1-0.9c0.2-1.1,1.2-2.9,3-5.2
			c1.8-2.4,3.2-3.6,4.1-3.6c0.4,0,0.8,0.2,1.3,0.5c0.4,0.3,0.6,0.7,0.6,1.2c0,0.9-0.5,2.2-1.4,3.9c-0.9,1.7-2,3.2-3.2,4.4
			c0,0.6,0.2,1.1,0.5,1.5c0.3,0.4,0.8,0.6,1.4,0.6h0.3c0.5,0,1-0.1,1.5-0.4c0.5-0.3,0.8-0.4,1-0.4c0.4,0,0.6,0.2,0.6,0.7
			c0,0.2-0.2,0.5-0.5,0.8c-0.1,0.1-0.3,0.3-0.8,0.6c-1.2,0.9-2.2,1.4-3.1,1.4c-0.6,0-1.3-0.1-1.9-0.4c-0.6-0.3-1.1-0.8-1.6-1.5
			c-1.9,2.5-3.7,4.5-5.2,5.8c-1.3,1.1-2.4,1.7-3.3,1.7c-1.3,0-2.5-0.9-3.8-2.7c-1.4-1.9-2.1-4-2.1-6.2c0-1.7,0.6-3.4,1.7-5.1
			c0.4-0.6,1.2-1.6,2.3-3.1c1.2-1.4,2.2-2.4,3-2.9c0.6-0.3,1.2-0.5,1.9-0.5c0.6,0,1.1,0.1,1.5,0.3c0.4,0.2,0.6,0.6,0.6,1.1
			c0,0.3-0.2,1-0.7,1.9c-0.3,0.6-0.8,1.3-1.3,2.1c-0.8,1.1-1.4,2-2,2.6C247.9,33.6,247.1,34.3,246.1,34.9z"/>
		<linearGradient id="SVGID_13_" gradientUnits="userSpaceOnUse" x1="199.5285" y1="22.4254" x2="199.3363" y2="52.3344">
			<stop  offset="0" style="stop-color:#D100CC"/>
			<stop  offset="0.5" style="stop-color:#92338A"/>
			<stop  offset="1" style="stop-color:#98008E"/>
		</linearGradient>
		<path class="st12" d="M280.9,27.6c0.8,0.2,1.3,0.6,1.5,1.2c0.2,0.6,0.3,1.2,0.3,1.9c0,0.6,0,1.1-0.1,1.3c-0.1,0.3-0.1,0.5-0.2,0.7
			c-0.2,1-0.4,1.8-0.8,2.5c-0.3,0.7-0.8,1.6-1.3,2.5l-0.2,0.5c0,0.2,0.1,0.4,0.4,0.6c0.2,0.2,0.6,0.3,0.9,0.3c0.5,0,0.9-0.2,1.3-0.5
			c0.4-0.3,0.8-0.5,1.1-0.5c0.4,0,0.6,0.1,0.6,0.4c0,0.5-0.6,1.2-1.9,2c-1.3,0.8-2.6,1.3-3.8,1.4h-1.1c-1.2,1.5-2.5,2.5-3.7,3.2
			s-2.5,1-3.8,1c-2,0-3.6-1-4.8-3c-1-1.6-1.4-3.4-1.4-5.2c0-2.7,1.6-5.6,4.9-8.7c3.3-3.1,6.3-4.7,9.2-4.7c0.8,0,1.5,0.2,2.2,0.5
			c0.6,0.4,1,0.7,1,1.1c0,0.2,0,0.4-0.1,0.7C281,27.2,280.9,27.4,280.9,27.6z M275.7,40.2c-0.2-0.4-0.4-0.7-0.5-1
			c-0.1-0.2-0.2-0.5-0.2-0.9c0-1.4,0.2-2.6,0.6-3.6c0.4-1,0.8-2,1.2-2.9c0.4-0.9,0.6-1.4,0.6-1.6c0-0.4-0.3-0.6-0.9-0.6
			c-0.6,0-1.5,0.4-2.7,1.3c-1,0.7-1.8,1.4-2.6,2.2c-1.2,1.2-2.1,2.3-2.6,3.3c-0.6,1-0.9,2.2-0.9,3.6c0,1.1,0.4,1.8,1.1,2.2
			c0.4,0.2,1,0.3,1.7,0.3c0.9,0,1.8-0.2,2.7-0.7C274.1,41.6,274.8,41,275.7,40.2z"/>
		<linearGradient id="SVGID_14_" gradientUnits="userSpaceOnUse" x1="199.5285" y1="22.4254" x2="199.3363" y2="52.3344">
			<stop  offset="0" style="stop-color:#D100CC"/>
			<stop  offset="0.5" style="stop-color:#92338A"/>
			<stop  offset="1" style="stop-color:#98008E"/>
		</linearGradient>
		<path class="st13" d="M289.6,37.6c-0.1,1.4,0.1,2.6,0.7,3.3c0.6,0.8,1.5,1.2,2.6,1.2c0.6,0,1.2-0.1,1.8-0.3
			c1.1-0.4,2.4-1.1,3.9-2.1c0.7-0.5,1.5-1,2.2-1.6c0.8-0.6,1.2-0.9,1.4-0.9c0.2,0,0.3,0.3,0.3,0.9c0,0.4-0.6,1.2-1.8,2.5
			c-0.9,0.9-1.8,1.7-2.7,2.5c-2.2,1.9-3.8,3.1-4.8,3.5c-1,0.5-2.1,0.7-3.3,0.7c-1.5,0-2.7-0.5-3.7-1.6c-1.1-1.2-1.7-2.9-1.7-5
			c0-3.7,1.7-7.4,5-11.1c3.3-3.7,6.6-5.5,9.8-5.5c1.3,0,2.2,0.3,2.7,1c0.4,0.5,0.6,1.1,0.6,1.8c0,1.9-1.5,4.1-4.5,6.5
			C295.2,35.7,292.3,37.1,289.6,37.6z M289.6,35.5c1.4-0.4,3.1-1.3,5-2.6c2.2-1.6,3.3-3.1,3.3-4.3c0-1-0.4-1.5-1.2-1.5
			c-1.3,0-2.7,0.9-4.1,2.7C291.2,31.6,290.2,33.5,289.6,35.5z"/>
		<linearGradient id="SVGID_15_" gradientUnits="userSpaceOnUse" x1="199.5285" y1="22.4254" x2="199.3363" y2="52.3344">
			<stop  offset="0" style="stop-color:#D100CC"/>
			<stop  offset="0.5" style="stop-color:#92338A"/>
			<stop  offset="1" style="stop-color:#98008E"/>
		</linearGradient>
		<path class="st14" d="M306.7,44.4c0-1.2,0.6-2.5,1.7-4c1.1-1.5,2.1-2.3,3-2.3c0.3,0,0.6,0.1,0.9,0.3c0.4,0.4,0.6,1,0.6,1.8
			c0,1.2-0.6,2.6-1.7,3.9c-1.1,1.4-2.1,2-3,2c-0.2,0-0.4-0.1-0.6-0.2C307,45.7,306.7,45.1,306.7,44.4z"/>
		<linearGradient id="SVGID_16_" gradientUnits="userSpaceOnUse" x1="199.5285" y1="22.4254" x2="199.3363" y2="52.3344">
			<stop  offset="0" style="stop-color:#D100CC"/>
			<stop  offset="0.5" style="stop-color:#92338A"/>
			<stop  offset="1" style="stop-color:#98008E"/>
		</linearGradient>
		<path class="st15" d="M316.8,38.4c0-2.9,1.8-6,5.4-9.4c3.6-3.4,7-5.1,10.2-5.1c0.6,0,1.2,0.1,1.6,0.4c0.4,0.3,0.7,0.7,0.7,1.3
			c0,0.8-0.7,2.3-2,4.5c-1.4,2.4-2.6,3.5-3.5,3.5c-0.3,0-0.5-0.3-0.5-0.8c0-0.5-0.4-0.9-1-1.2c-0.2-0.1-0.4-0.1-0.7,0
			c-1.1,0.3-2.5,1.2-4.1,2.9c-1.6,1.7-2.4,3.2-2.4,4.5c0,0.9,0.3,1.6,1,2.2c0.9,0.8,2.1,1.2,3.8,1.2c1.3,0,2.6-0.3,3.9-0.9
			c0.4-0.2,1.2-0.6,2.4-1.4c0.9-0.6,1.8-1.2,2.7-1.9c0.9-0.7,1.4-1,1.6-1c0.3,0,0.5,0.2,0.5,0.6c0,0.3-0.2,0.7-0.7,1.3
			c-0.8,0.9-2.2,2.2-4.2,4c-1.4,1.2-2.7,2.1-3.8,2.8c-1.5,0.8-2.8,1.3-4.1,1.3c-2.1,0-3.7-1.1-5-3.3
			C317.3,42.3,316.8,40.4,316.8,38.4z"/>
		<linearGradient id="SVGID_17_" gradientUnits="userSpaceOnUse" x1="199.5285" y1="22.4254" x2="199.3363" y2="52.3344">
			<stop  offset="0" style="stop-color:#D100CC"/>
			<stop  offset="0.5" style="stop-color:#92338A"/>
			<stop  offset="1" style="stop-color:#98008E"/>
		</linearGradient>
		<path class="st16" d="M353.1,27.6c0.8,0.2,1.3,0.6,1.5,1.2c0.2,0.6,0.3,1.2,0.3,1.9c0,0.6,0,1.1-0.1,1.3c-0.1,0.3-0.1,0.5-0.2,0.7
			c-0.2,1-0.4,1.8-0.8,2.5c-0.3,0.7-0.8,1.6-1.3,2.5l-0.2,0.5c0,0.2,0.1,0.4,0.4,0.6c0.2,0.2,0.6,0.3,0.9,0.3c0.5,0,0.9-0.2,1.3-0.5
			c0.4-0.3,0.8-0.5,1.1-0.5c0.4,0,0.6,0.1,0.6,0.4c0,0.5-0.6,1.2-1.9,2c-1.3,0.8-2.6,1.3-3.8,1.4h-1.1c-1.2,1.5-2.5,2.5-3.7,3.2
			c-1.3,0.6-2.5,1-3.8,1c-2,0-3.6-1-4.8-3c-1-1.6-1.4-3.4-1.4-5.2c0-2.7,1.6-5.6,4.9-8.7c3.3-3.1,6.3-4.7,9.2-4.7
			c0.8,0,1.5,0.2,2.2,0.5c0.6,0.4,1,0.7,1,1.1c0,0.2,0,0.4-0.1,0.7C353.2,27.2,353.2,27.4,353.1,27.6z M347.9,40.2
			c-0.2-0.4-0.4-0.7-0.5-1c-0.1-0.2-0.2-0.5-0.2-0.9c0-1.4,0.2-2.6,0.6-3.6c0.4-1,0.8-2,1.2-2.9c0.4-0.9,0.6-1.4,0.6-1.6
			c0-0.4-0.3-0.6-0.9-0.6c-0.6,0-1.5,0.4-2.7,1.3c-1,0.7-1.8,1.4-2.6,2.2c-1.2,1.2-2.1,2.3-2.6,3.3c-0.6,1-0.9,2.2-0.9,3.6
			c0,1.1,0.4,1.8,1.1,2.2c0.4,0.2,1,0.3,1.7,0.3c0.9,0,1.8-0.2,2.7-0.7C346.3,41.6,347.1,41,347.9,40.2z"/>
		<linearGradient id="SVGID_18_" gradientUnits="userSpaceOnUse" x1="199.5285" y1="22.4254" x2="199.3363" y2="52.3344">
			<stop  offset="0" style="stop-color:#D100CC"/>
			<stop  offset="0.5" style="stop-color:#92338A"/>
			<stop  offset="1" style="stop-color:#98008E"/>
		</linearGradient>
		<path class="st17" d="M361.2,39.2c1.2-1.2,2.5-2.5,4-3.9c1.8-1.7,4.1-3.6,6.7-5.7c1.3-1.1,2.6-1.9,3.8-2.6c1.2-0.7,2.1-1,2.9-1
			c0.6,0,1,0.2,1.1,0.6s0.2,0.9,0.2,1.6c0,0.3-0.1,0.7-0.3,1.3c-0.2,0.6-0.5,1.2-1,2c-1.4,2-2.3,3.3-2.6,3.7
			c-0.5,0.7-0.7,1.1-0.7,1.4l0.3,0.5c0.3,0,1.2-0.6,2.8-1.9c1.3-1.1,2.4-2.1,3.4-3.1c0.6-0.6,2-1.6,4-2.9c2-1.3,3.4-1.9,4-1.9
			c0.5,0,1,0.4,1.3,1.2c0.3,0.8,0.5,1.6,0.5,2.4c0,0.3-0.2,0.7-0.7,1.1c-1.8,1.6-2.8,2.6-3.1,3c-0.5,0.6-0.9,1.3-1.3,1.9
			c-0.6,1.1-0.9,2-0.9,2.6c0,1.1,0.6,1.7,1.7,1.7c1.3,0,2.3-0.6,2.8-1.7c0.5-1.1,1.6-1.7,3.2-1.7l0.4,0.2v0.5c-0.3,1.2-2,2.9-5,5.1
			c-3,2.2-5.1,3.4-6.2,3.4c-0.6,0-1.2-0.2-1.7-0.5c-0.7-0.4-1-1-1-1.9c0-1,0.1-1.8,0.3-2.5c0.2-0.7,0.6-1.6,1.1-2.6
			c0.4-0.8,0.9-1.7,1.5-2.7c0.3-0.4,0.4-0.7,0.5-1l0.1-0.5l-0.3-0.3c-0.4,0-1.3,0.5-2.7,1.6s-2.6,2-3.5,2.9c-1.3,1.4-2.6,2.7-3.9,4
			c-1.3,1.3-2.3,1.9-3.1,1.9c-1.1,0-1.7-0.6-1.7-1.9c0-0.3,0.1-0.7,0.3-1.4c0.2-0.7,0.7-1.6,1.4-2.7c0.7-1.1,1.4-2.3,2.1-3.4
			c0.3-0.5,0.4-0.8,0.4-0.9c0-0.6-0.4-0.9-1.3-0.9c-1.3,0-3.6,1.7-6.7,5c-0.7,0.8-1.8,2.2-3.3,4.3c-0.9,1.3-1.7,2-2.2,2
			c-0.6,0-1-0.3-1.4-0.9c-0.6-0.9-0.9-2.4-0.9-4.5c0-1.8,0.2-3.1,0.6-4.1c0.4-0.9,1.5-2.5,3.3-4.9c0.8-1.1,1.4-1.8,1.8-2.2
			c1-1,2-1.5,3.1-1.5c1.3,0,2,0.2,2,0.7c0,0.5-0.4,1.2-1.1,2.1c-0.2,0.3-0.9,1-2.1,2.3c-2.4,2.7-3.6,4.2-3.6,4.7
			C360.8,37.9,361,38.6,361.2,39.2z"/>
	</g>
</g>
<g>
	<path d="M154.9,64.5h1.6l2.7,7.2l2.7-7.2h1.6V73h-1.1v-7.1l-2.7,7.1h-1l-2.7-7.1V73h-1.1V64.5z"/>
	<path d="M169.4,64.3c1.3,0,2.3,0.4,3,1.2c0.7,0.8,1.1,1.9,1.1,3.2c0,1.3-0.4,2.4-1.1,3.3c-0.7,0.9-1.7,1.3-3,1.3
		c-0.7,0-1.3-0.1-1.8-0.4s-1-0.6-1.3-1s-0.6-0.9-0.8-1.5c-0.2-0.5-0.3-1.1-0.3-1.8c0-1.3,0.4-2.4,1.1-3.2
		C167.2,64.6,168.2,64.3,169.4,64.3z M169.4,65.2c-1,0-1.7,0.3-2.2,1s-0.8,1.5-0.8,2.5c0,1.1,0.3,1.9,0.8,2.6c0.5,0.6,1.3,1,2.2,1
		c0.9,0,1.6-0.3,2.1-1c0.5-0.6,0.8-1.5,0.8-2.6c0-1.1-0.3-1.9-0.8-2.5C171,65.6,170.3,65.2,169.4,65.2z"/>
	<path d="M182.9,75.1h-1.1V73h-6.2v2.1h-1.1V72h0.8c0.3-0.6,0.6-1.4,0.8-2.5s0.3-2.2,0.3-3.4v-1.7h5.5V72h0.9V75.1z M180.9,72v-6.6
		h-3.2v1.2c0,1-0.1,2.1-0.3,3.1c-0.2,1-0.4,1.8-0.7,2.3H180.9z"/>
	<path d="M191.3,64.5V73h-1.1v-4h-4.5v4h-1.1v-8.5h1.1V68h4.5v-3.6H191.3z"/>
	<path d="M200.1,70.5c0,0.8-0.2,1.4-0.7,1.9s-1.1,0.7-1.9,0.7h-3.7v-8.5h1.1v3.5h2.6c0.8,0,1.5,0.2,1.9,0.7
		C199.8,69,200.1,69.7,200.1,70.5z M198.9,70.5c0-1-0.6-1.6-1.9-1.6h-2.2V72h2.2C198.3,72,198.9,71.5,198.9,70.5z M201.1,64.5h1.1
		V73h-1.1V64.5z"/>
	<path d="M210.5,64.5v1h-4.8v2.7h4.5v0.9h-4.5v3h4.8v1h-6v-8.5H210.5z"/>
	<path d="M219.8,64.5l3.3,8.5h-1.3l-0.9-2.6h-3.6l-1,2.6h-1.2l3.4-8.5H219.8z M220.6,69.5l-1.5-3.9l-1.5,3.9H220.6z"/>
	<path d="M226.7,70.8l-3.1-6.3h1.2l2.5,5.2l2.4-5.2h1.2l-3.3,6.8c-0.3,0.7-0.7,1.2-1.1,1.5c-0.4,0.3-0.8,0.4-1.2,0.4
		c-0.4,0-0.7-0.1-1.1-0.2v-1c0.2,0.1,0.6,0.2,1,0.2c0.5,0,0.9-0.4,1.3-1.2L226.7,70.8z"/>
	<path d="M239.3,64.5l-3.6,3.4l3.7,5.1H238l-3.1-4.3l-1.4,1.3v3h-1.1v-8.5h1.1v4.2l4.3-4.2H239.3z"/>
	<path d="M247.3,75.1V73h-6.5v-8.5h1.1V72h4.4v-7.6h1.1V72h0.9v3.1H247.3z"/>
	<path d="M250,73v-8.5h1.1v7.2h0l4.2-7.2h1.4V73h-1.1v-7.3h0l-4.2,7.3H250z"/>
	<path d="M262.7,64.3c1.3,0,2.3,0.4,3,1.2c0.7,0.8,1.1,1.9,1.1,3.2c0,1.3-0.4,2.4-1.1,3.3c-0.7,0.9-1.7,1.3-3,1.3
		c-0.7,0-1.3-0.1-1.8-0.4s-1-0.6-1.3-1s-0.6-0.9-0.8-1.5c-0.2-0.5-0.3-1.1-0.3-1.8c0-1.3,0.4-2.4,1.1-3.2
		C260.5,64.6,261.5,64.3,262.7,64.3z M262.7,65.2c-1,0-1.7,0.3-2.2,1s-0.8,1.5-0.8,2.5c0,1.1,0.3,1.9,0.8,2.6c0.5,0.6,1.3,1,2.2,1
		c0.9,0,1.6-0.3,2.1-1c0.5-0.6,0.8-1.5,0.8-2.6c0-1.1-0.3-1.9-0.8-2.5C264.3,65.6,263.6,65.2,262.7,65.2z"/>
	<path d="M275.5,64.5V73h-1.1v-4h-4.5v4h-1.1v-8.5h1.1V68h4.5v-3.6H275.5z"/>
	<path d="M284.2,70.5c0,0.8-0.2,1.4-0.7,1.9s-1.1,0.7-1.9,0.7h-3.7v-8.5h1.1v3.5h2.6c0.8,0,1.5,0.2,1.9,0.7
		C284,69,284.2,69.7,284.2,70.5z M283.1,70.5c0-1-0.6-1.6-1.9-1.6H279V72h2.2C282.5,72,283.1,71.5,283.1,70.5z M285.3,64.5h1.1V73
		h-1.1V64.5z"/>
</g>
</svg>
