<?xml version="1.0" encoding="iso-8859-1"?>
<!-- Generator: Adobe Illustrator 19.0.0, SVG Export Plug-In . SVG Version: 6.00 Build 0)  -->
<svg version="1.1" id="Layer_1" xmlns="http://www.w3.org/2000/svg" xmlns:xlink="http://www.w3.org/1999/xlink" x="0px" y="0px"
	 viewBox="0 0 512 512" style="enable-background:new 0 0 512 512;" xml:space="preserve">
<rect style="fill:#FFD55C;" width="512" height="512"/>
<path style="fill:#2B4457;" d="M415.219,308.869c0,1.631-0.617,3.259-1.869,4.503c-1.234,1.239-2.865,1.864-4.495,1.864H103.15
	c-1.628,0-3.259-0.622-4.49-1.864c-1.252-1.242-1.879-2.872-1.879-4.503v-95.596h318.441v95.596H415.219z"/>
<path style="fill:#526677;" d="M415.219,213.274H96.781V187.93c0-1.631,0.627-3.254,1.879-4.503c1.231-1.236,2.865-1.866,4.49-1.866
	h305.705c1.631,0,3.259,0.63,4.495,1.866c1.252,1.249,1.869,2.872,1.869,4.503L415.219,213.274L415.219,213.274z"/>
<rect x="134.871" y="263.322" style="fill:#213546;" width="242.022" height="51.901"/>
<rect x="144.538" y="285.414" style="fill:#2B4457;" width="222.925" height="63.695"/>
<rect x="144.538" y="132.521" style="fill:#213546;" width="222.925" height="63.706"/>
<rect x="156.723" y="113.408" style="fill:#2B4457;" width="198.554" height="82.826"/>
<g>
	<rect x="96.781" y="213.274" style="fill:#213546;" width="318.438" height="3.748"/>
	<rect x="390.323" y="237.85" style="fill:#213546;" width="11.459" height="8.015"/>
	<rect x="390.323" y="255.309" style="fill:#213546;" width="11.459" height="8.015"/>
</g>
<g>
	<rect x="164.787" y="98.022" style="fill:#FFFFFF;" width="182.17" height="98.202"/>
	<rect x="164.787" y="277.709" style="fill:#FFFFFF;" width="182.17" height="136.243"/>
</g>
<path style="fill:#21D8DE;" d="M230.95,388.851c0,5.23-4.239,9.469-9.469,9.469c-5.228,0-9.459-4.239-9.459-9.469
	c0-5.22,4.232-9.464,9.459-9.464C226.711,379.384,230.95,383.629,230.95,388.851z"/>
<path style="fill:#FF6D3B;" d="M265.334,388.851c0,5.23-4.234,9.469-9.459,9.469c-5.23,0-9.464-4.239-9.464-9.469
	c0-5.22,4.234-9.464,9.464-9.464C261.1,379.384,265.334,383.629,265.334,388.851z"/>
<path style="fill:#213546;" d="M299.725,388.851c0,5.23-4.234,9.469-9.459,9.469c-5.228,0-9.464-4.239-9.464-9.469
	c0-5.22,4.237-9.464,9.464-9.464C295.491,379.384,299.725,383.629,299.725,388.851z"/>
<polygon style="fill:#21D8DE;" points="255.875,325.624 223.621,357.88 288.125,357.88 "/>
<polygon style="fill:#FF6D3B;" points="255.875,325.624 223.621,293.373 223.621,357.88 "/>
<polygon style="fill:#213546;" points="223.621,293.373 255.875,325.624 288.125,357.88 288.125,293.373 "/>
<g>
</g>
<g>
</g>
<g>
</g>
<g>
</g>
<g>
</g>
<g>
</g>
<g>
</g>
<g>
</g>
<g>
</g>
<g>
</g>
<g>
</g>
<g>
</g>
<g>
</g>
<g>
</g>
<g>
</g>
</svg>
